<?xml version="1.0" standalone="no"?>
<!DOCTYPE svg PUBLIC "-//W3C//DTD SVG 20010904//EN"
 "http://www.w3.org/TR/2001/REC-SVG-20010904/DTD/svg10.dtd">
<svg version="1.0" xmlns="http://www.w3.org/2000/svg"
 width="163.000000pt" height="163.000000pt" viewBox="0 0 163.000000 163.000000"
 preserveAspectRatio="xMidYMid meet">
<metadata>
Created by potrace 1.14, written by Peter Selinger 2001-2017
</metadata>
<g transform="translate(0.000000,163.000000) scale(0.100000,-0.100000)"
fill="#000000" stroke="none">
<path d="M623 1555 c-23 -5 -44 -13 -48 -16 -3 -4 -6 -305 -6 -670 -1 -365 -4
-669 -9 -674 -14 -17 16 -45 66 -60 27 -8 52 -15 57 -15 4 0 7 212 7 472 0
259 3 468 7 464 4 -3 8 -12 9 -19 1 -7 16 -66 33 -132 18 -66 34 -127 36 -135
2 -8 38 -143 80 -300 42 -157 79 -296 81 -310 8 -39 16 -41 74 -22 l53 17 0
688 c-1 378 -3 691 -7 694 -12 12 -110 33 -116 24 -3 -5 -5 -225 -4 -488 1
-459 -1 -488 -26 -383 -10 43 -62 242 -96 368 -14 51 -27 100 -29 110 -2 9
-23 87 -46 172 -23 85 -44 167 -46 182 -7 39 -22 46 -70 33z"/>
<path d="M450 1483 c-77 -44 -75 -42 -151 -116 -56 -55 -129 -151 -129 -170 0
-11 81 -87 92 -87 4 0 8 5 8 10 0 16 51 91 92 135 l38 40 1 -45 c1 -25 0 -54
-1 -65 -1 -11 -76 -95 -167 -187 -91 -91 -163 -171 -159 -176 3 -5 6 -26 8
-46 2 -35 8 -42 74 -87 81 -54 167 -96 264 -127 36 -11 73 -24 83 -28 16 -6
17 1 15 101 l-3 108 -55 18 c-30 10 -56 19 -57 19 -2 0 -3 -19 -3 -41 0 -36
-2 -40 -15 -29 -8 7 -15 10 -15 6 0 -7 -125 58 -147 76 -9 7 30 52 143 165
l156 154 0 200 c0 110 -2 202 -4 204 -2 2 -33 -12 -68 -32z"/>
<path d="M1108 1507 c-4 -10 -3 -288 1 -325 0 -7 6 -10 11 -7 6 3 10 3 10 -2
0 -4 19 -9 43 -11 23 -1 67 -12 97 -23 54 -20 170 -78 180 -89 3 -4 12 -9 20
-13 8 -4 25 -14 38 -23 32 -24 29 -1 -8 64 -34 58 -129 136 -180 147 -40 9
-45 20 -21 51 20 25 37 81 28 90 -3 3 -21 -1 -40 -10 -19 -8 -38 -12 -41 -8
-3 3 -6 0 -6 -6 0 -7 -6 -12 -14 -12 -8 0 -17 -6 -19 -12 -3 -7 -6 -2 -7 12
-3 58 -10 87 -30 125 -23 45 -55 72 -62 52z"/>
<path d="M1109 1151 c-4 -23 -3 -944 1 -961 5 -20 7 -20 60 12 l55 33 3 218
c1 121 6 217 11 217 5 0 16 -7 25 -15 8 -8 18 -15 21 -15 4 0 25 -14 46 -31
l39 -31 -20 -28 c-28 -39 -26 -51 20 -95 39 -38 40 -38 55 -19 20 25 79 149
93 194 20 64 34 187 30 255 -4 59 -7 69 -34 90 -16 13 -34 24 -41 25 -6 0 -13
4 -15 9 -4 12 -211 111 -232 111 -9 0 -16 5 -16 10 0 6 -3 9 -7 9 -22 -4 -54
2 -50 9 3 4 -6 8 -19 8 -13 1 -24 -1 -25 -5z m208 -202 c114 -61 113 -60 108
-140 -6 -99 -12 -106 -61 -71 -21 15 -60 39 -86 52 l-48 24 0 83 c0 97 1 98
87 52z"/>
<path d="M100 686 c0 -34 44 -108 88 -146 23 -21 68 -50 100 -65 31 -16 58
-29 60 -30 2 -2 -8 -20 -23 -40 -22 -34 -26 -45 -25 -72 1 -12 41 -3 82 18 20
10 39 19 41 19 2 0 7 -22 10 -49 3 -28 13 -63 21 -78 16 -31 53 -73 64 -73 7
0 6 329 -1 337 -3 2 -17 6 -33 9 -16 3 -44 9 -62 15 -18 6 -39 12 -45 13 -59
13 -237 110 -264 144 -12 14 -13 14 -13 -2z"/>
</g>
</svg>
